<?xml version="1.0" encoding="UTF-8" standalone="no"?>
<svg
   id="Layer_1"
   data-name="Layer 1"
   viewBox="0 0 120.18 88.019996"
   version="1.1"
   width="120.18"
   height="88.019997"
   xmlns="http://www.w3.org/2000/svg"
   xmlns:svg="http://www.w3.org/2000/svg">
  <defs
     id="defs1">
    <style
       id="style1">.cls-1{fill:#fcfcfd;}.cls-2{fill:#fcfcfc;}.cls-3{fill:#235186;}.cls-4{fill:#d73b36;}.cls-5{fill:#f9fafb;}.cls-6{fill:#e16e6a;}.cls-7{fill:#7793b4;}.cls-8{fill:#2d588b;}.cls-9{font-size:72px;fill:#1f4e84;font-family:AvenirNext-Regular, Avenir Next;letter-spacing:-0.01em;}.cls-10{fill:#d73732;font-size:60px;letter-spacing:-0.01em;}</style>
  </defs>
  <path
     class="cls-1"
     d="m 84.09,88.02 v -1 c 3.77,0.26 7,-1.4 10.31,-2.83 A 45.73,45.73 0 0 0 109,73.66 c 6,-6.16 8.89,-13.81 11.09,-21.85 -0.47,-5.67 0.43,-11.32 -0.86,-17.08 -2.4,-10.7 -8.37,-19 -16.65,-25.43 C 95.47,3.84 86.85,1.23 77.64,0.94 74.01,0.82 70.64,1.84 67.09,2.2 a 12.7,12.7 0 0 0 -4.51,1 c -5.48,3 -11.39,5.26 -15.92,9.77 a 44.32,44.32 0 0 0 -7.67,10.28 c -1.38,2.52 -2.9,4.82 -2.9,7.79 -1.49,0.09 -0.84,1.24 -1,2 v 1 a 0.85,0.85 0 0 0 -1,1 h -1 c 0.7,-2.18 -0.81,-4 -1,-6 a 24.75,24.75 0 0 1 2.19,-12 c 1.92,-4.7 4.15,-9.57 9.28,-12 1.57,-2.47 4.64,-3 6.56,-5"
     id="path1"
     style="fill:none" />
  <path
     class="cls-2"
     d="m 35.09,34.02 v -1 c 1.5,-0.08 0.85,-1.24 1,-2 1.62,-0.6 2.49,-2.08 3.66,-3.19 2.29,-2.18 4.16,-5 6.8,-6.54 3.28,-1.91 6.7,-3.88 10.51,-4.69 3.08,-0.66 6.22,-1.06 9.33,-1.58 2.3,-0.39 4.39,0.8 6.57,0.93 3.39,0.2 6.32,1.61 9.35,2.8 6.84,2.7 11.7,7.83 15.6,13.74 a 32.32,32.32 0 0 1 5,13.82 c 0.58,4.88 0.64,10 -1.73,15.29 -4.11,-3.84 -7.55,-8.37 -13.13,-10.49 0,1 -0.27,2 0,2.61 1.68,3.43 0.87,7.06 0.89,10.59 A 18.73,18.73 0 0 1 87.11,71.5 29.74,29.74 0 0 1 73.87,86.01 c -0.86,0.49 -1.68,0.94 -1.87,2 H 0 v -37 h 1 c -0.53,1.72 0.71,3 1.07,4.55 a 38.1,38.1 0 0 0 5.19,11.3 c 2.84,4.55 7.09,7.69 10.68,11.48 A 15.11,15.11 0 0 0 22.28,81 c 5.94,2.94 12,5.47 18.85,5 2.64,-0.17 5.31,0 8,0 0.83,0 1.84,0.27 2.44,-0.11 2.31,-1.46 5.15,-1 7.5,-2.37 2.35,-1.37 4.7,-2.3 7,-3.53 4.68,-2.5 8.36,-6.3 11.58,-10.32 A 24.68,24.68 0 0 0 83.04,59 c 1.93,-0.47 0.62,-2 1.3,-4 0.09,-0.78 -0.29,-0.49 -0.27,-0.45 0.27,0.44 -0.6,1.53 0.42,1.33 0.81,-0.17 0.77,-1.15 -0.15,-0.88 -1.39,1.21 -2,1.87 -2.3,3 -0.6,1.62 -2,2.56 -3.19,3.66 -6.93,6.51 -14.92,10.55 -24.68,10.35 q -2.25,0 -4.5,0 c -3.87,0.07 -7.33,-1.45 -10.86,-2.73 -4.67,-1.69 -8,-5.11 -11.5,-8.45 -6.76,-6.52 -9.1,-14.86 -10.24,-23.74 -0.15,-1.15 0.09,-2.35 0,-3.5 -0.18,-1.38 1.17,-2.14 1.1,-3.58 -0.1,-2.31 0.12,-2.32 1.75,-4.86 a 25.64,25.64 0 0 0 12.7,11 L 33.09,35 h 1 c 0.7,0.05 1.03,-0.28 1,-0.98 z"
     id="path2"
     style="fill:none" />
  <path
     class="cls-3"
     d="m 33.09,35.02 -0.47,1.15 a 25.64,25.64 0 0 1 -12.7,-11 c -1.63,2.54 -1.85,2.55 -1.75,4.86 0.07,1.44 -1.28,2.2 -1.1,3.58 0.14,1.15 -0.1,2.35 0,3.5 1.14,8.88 3.48,17.22 10.24,23.74 3.48,3.34 6.83,6.76 11.5,8.45 3.53,1.28 7,2.8 10.86,2.73 q 2.25,0 4.5,0 c 9.76,0.2 17.75,-3.84 24.68,-10.35 1.17,-1.1 2.59,-2 3.19,-3.66 0.7,0 1,0.31 1,1 a 24.68,24.68 0 0 1 -5.32,10.67 c -3.22,4 -6.9,7.82 -11.58,10.32 -2.3,1.23 -4.73,2.24 -7,3.53 -2.27,1.29 -5.19,0.91 -7.5,2.37 -0.6,0.38 -1.61,0.11 -2.44,0.11 -2.65,0 -5.32,-0.14 -8,0 -6.87,0.43 -12.91,-2.1 -18.85,-5 A 15.11,15.11 0 0 1 18.01,78.36 C 14.42,74.57 10.17,71.43 7.33,66.88 A 38.1,38.1 0 0 1 2.14,55.58 c -0.36,-1.5 -1.6,-2.83 -1.07,-4.55 0,-1.27 0,-2.53 0,-3.8 0,-0.68 -0.12,-1.26 -1,-1.2 v -5 c 1.93,-0.47 0.62,-2 1,-3 a 50.58,50.58 0 0 1 0.81,-7.06 c 1.07,-4.83 3.72,-8.77 5.89,-13 1,-2 3.09,-3.6 4.55,-5.53 a 21.24,21.24 0 0 1 5.83,-4.93 c 4.85,-3 9.61,-6.26 15.57,-6.69 0.14,0 0.24,-0.53 0.35,-0.82 h 16 c -1.92,2 -5,2.53 -6.56,5 -5.13,2.4 -7.36,7.27 -9.28,12 a 24.75,24.75 0 0 0 -2.19,12 c 0.24,2.04 1.75,3.8 1.05,6.02 z M 40.03,1.55 C 40.95,2.16 41.59,2.47 41.97,1.36 41.35,0.87 40.8,0.8 40.03,1.55 Z"
     id="path3" />
  <path
     class="cls-4"
     d="m 72.09,88.02 c 0.19,-1.07 1,-1.52 1.87,-2 A 29.74,29.74 0 0 0 87.2,71.51 18.73,18.73 0 0 0 89.03,64.32 c 0,-3.53 0.79,-7.16 -0.89,-10.59 -0.32,-0.65 0,-1.59 0,-2.61 5.58,2.12 9,6.65 13.13,10.49 2.37,-5.32 2.31,-10.41 1.73,-15.29 A 32.32,32.32 0 0 0 98,32.5 c -3.9,-5.91 -8.76,-11 -15.6,-13.74 -3,-1.19 -6,-2.6 -9.35,-2.8 -2.18,-0.13 -4.27,-1.32 -6.57,-0.93 -3.11,0.52 -6.25,0.92 -9.33,1.58 -3.81,0.81 -7.23,2.78 -10.51,4.69 -2.64,1.54 -4.51,4.36 -6.8,6.54 -1.17,1.11 -2,2.59 -3.66,3.19 0,-3 1.52,-5.27 2.9,-7.79 A 44.32,44.32 0 0 1 46.75,12.96 C 51.28,8.45 57.19,6.14 62.67,3.19 a 12.7,12.7 0 0 1 4.51,-1 C 70.7,1.83 74.1,0.81 77.73,0.93 c 9.21,0.29 17.83,2.9 24.94,8.36 8.28,6.38 14.25,14.73 16.65,25.43 1.29,5.76 0.39,11.41 0.86,17.08 -2.2,8 -5.12,15.69 -11.09,21.85 a 45.73,45.73 0 0 1 -14.6,10.53 c -3.29,1.43 -6.54,3.09 -10.31,2.83 H 78.4 c -0.68,0 -1.28,0.09 -1.22,1 z"
     id="path4" />
  <path
     class="cls-5"
     d="m 34.09,0.02 c -0.11,0.29 -0.21,0.81 -0.35,0.82 -6,0.43 -10.72,3.73 -15.57,6.69 a 21.24,21.24 0 0 0 -5.83,4.93 c -1.46,1.93 -3.5,3.49 -4.55,5.53 -2.17,4.2 -4.82,8.14 -5.89,13 a 50.58,50.58 0 0 0 -0.81,7.06 h -1 v -38 z"
     id="path5"
     style="fill:none" />
  <path
     class="cls-6"
     d="m 77.09,88.02 c -0.06,-0.91 0.54,-1 1.22,-1 h 5.78 v 1 z"
     id="path6" />
  <path
     class="cls-7"
     d="m 0.09,46.02 c 0.89,-0.06 1,0.52 1,1.2 0,1.27 0,2.53 0,3.8 h -1 z"
     id="path7" />
  <path
     class="cls-8"
     d="m 0.09,38.02 h 1 c -0.38,1 0.93,2.53 -1,3 z"
     id="path8" />
  <path
     class="cls-6"
     d="m 36.09,31.02 c -0.15,0.76 0.5,1.92 -1,2 0.16,-0.76 -0.49,-1.91 1,-2 z"
     id="path9" />
  <path
     class="cls-8"
     d="m 83.09,59.02 c 0,-0.69 -0.3,-1 -1,-1 a 2.47,2.47 0 0 1 2,-2 c -0.37,0.99 0.93,2.53 -1,3 z"
     id="path11" />
  <path
     class="cls-7"
     d="m 84.72,54.1 c 0.62,0.69 0.66,1.67 -0.15,1.84 -1,0.2 -0.15,-0.89 -0.42,-1.33 -0.05,-0.04 0.33,-0.33 0.57,-0.51 z"
     id="path12" />
  <path
     class="cls-8"
     d="M 40.03,1.55 C 40.8,0.83 41.35,0.87 41.97,1.36 41.59,2.47 40.95,2.16 40.03,1.55 Z"
     id="path13" />
</svg>
